<?xml version="1.0" standalone="no"?>
<!DOCTYPE svg PUBLIC "-//W3C//DTD SVG 20010904//EN"
 "http://www.w3.org/TR/2001/REC-SVG-20010904/DTD/svg10.dtd">
<svg version="1.0" xmlns="http://www.w3.org/2000/svg"
 width="406.000000pt" height="406.000000pt" viewBox="0 0 406.000000 406.000000"
 preserveAspectRatio="xMidYMid meet">

<g transform="translate(0.000000,406.000000) scale(0.100000,-0.100000)"
fill="#000000" stroke="none">
<path d="M2565 3777 c-55 -29 -125 -68 -155 -86 -129 -78 -192 -81 -365 -17
-38 15 -100 31 -136 37 -168 26 -349 -53 -443 -195 -37 -56 -37 -56 -79 -50
-49 7 -122 48 -149 84 -10 14 -26 47 -36 74 -20 57 -43 76 -69 60 -42 -26 -24
-118 37 -187 22 -25 40 -49 40 -54 0 -4 -26 -21 -58 -38 -65 -33 -169 -135
-210 -204 -15 -25 -40 -59 -55 -74 -32 -31 -117 -202 -117 -235 0 -22 37 -55
52 -46 5 3 24 36 43 74 19 38 39 71 45 75 19 12 10 -45 -15 -92 -53 -102 -69
-148 -72 -218 -6 -102 -10 -115 -37 -115 -31 0 -44 -17 -48 -65 -3 -39 -3 -40
-52 -47 -29 -4 -58 -16 -73 -30 -45 -41 -53 -76 -53 -225 0 -134 -1 -139 -22
-148 -33 -14 -35 -42 -4 -56 26 -12 26 -13 26 -128 1 -193 24 -241 122 -251
43 -4 54 -9 56 -25 8 -40 21 -45 118 -45 l93 0 6 -37 c21 -139 51 -207 121
-277 55 -54 104 -85 176 -111 l63 -23 5 -122 5 -123 310 -304 c171 -168 324
-313 340 -324 38 -24 92 -24 130 0 17 11 171 158 343 328 l313 308 -1 107 c0
123 4 138 35 138 22 0 22 0 28 -208 l5 -207 -34 -28 c-28 -24 -34 -36 -34 -67
0 -71 80 -105 136 -57 36 31 35 76 -1 119 -27 31 -27 34 -21 133 3 55 6 155 6
222 l0 123 68 49 c105 77 149 149 176 291 l12 65 93 3 92 3 15 34 c13 32 18
35 58 35 55 0 101 35 116 88 5 20 10 91 10 158 0 120 0 121 26 133 31 14 29
42 -4 56 -21 9 -22 14 -22 150 0 116 -4 147 -19 182 -23 49 -62 73 -121 73
l-40 0 0 50 c0 52 -19 74 -58 68 -15 -3 -18 9 -23 88 -3 49 -8 95 -12 101 -4
6 29 47 73 91 104 104 105 117 5 127 -75 7 -75 7 -120 58 -25 28 -45 56 -45
60 0 5 16 37 34 70 46 81 66 163 66 263 0 136 -8 140 -125 59 -144 -100 -261
-111 -351 -33 -64 56 -79 99 -76 213 1 55 3 111 4 125 5 42 -36 36 -147 -23z
m41 -150 c2 -117 73 -231 178 -284 97 -49 237 -42 330 18 50 31 51 30 35 -37
-8 -31 -22 -53 -44 -70 -49 -37 -152 -74 -230 -82 -60 -6 -70 -10 -67 -25 3
-16 0 -17 -17 -7 -15 7 -21 8 -21 0 0 -6 -6 -10 -12 -9 -7 1 -20 0 -28 -4 -49
-18 -95 -22 -280 -23 -113 0 -248 -6 -300 -14 -52 -7 -131 -12 -175 -12 -43 0
-104 -6 -133 -13 -30 -8 -58 -12 -63 -10 -4 3 -11 0 -14 -6 -4 -6 -18 -8 -31
-5 -13 4 -40 -1 -61 -10 -21 -10 -51 -19 -67 -21 -16 -3 -58 -20 -93 -39 -35
-18 -63 -31 -63 -29 0 8 -57 -23 -109 -59 -110 -75 -131 -87 -125 -68 5 16 4
15 -9 -1 -11 -14 -16 -15 -21 -5 -5 10 -7 10 -12 0 -3 -6 -10 -10 -15 -6 -5 3
-9 1 -9 -5 0 -5 10 -11 23 -13 15 -2 18 -6 10 -11 -15 -10 -66 38 -110 103
-80 118 -65 278 36 379 110 110 273 134 417 60 49 -26 69 -31 81 -23 52 33 42
81 -27 118 l-50 27 17 31 c24 40 76 83 143 116 49 24 66 27 155 26 92 0 107
-3 195 -39 82 -33 106 -38 175 -39 98 0 149 16 275 89 52 30 100 55 105 55 6
0 10 -24 11 -53z m-1672 -843 c13 -5 16 -24 16 -105 l0 -99 -31 0 -32 0 5 94
c5 82 11 116 23 116 2 0 10 -3 19 -6z m2251 -67 c4 -17 5 -55 3 -82 -3 -46 -5
-50 -30 -53 l-28 -3 0 75 c0 61 3 77 18 85 26 16 31 13 37 -22z m-2125 -60 c0
-81 30 -126 111 -164 l58 -28 -7 -55 c-3 -30 -6 -194 -6 -365 -1 -362 0 -367
91 -421 l52 -31 672 -6 672 -7 55 25 c38 17 50 20 41 9 -40 -49 -32 -48 -709
-56 -349 -4 -656 -5 -682 -2 -28 3 -65 18 -90 34 -23 16 -46 26 -50 24 -4 -3
-5 2 -2 11 5 11 0 18 -15 22 -11 3 -21 12 -21 19 0 8 -10 14 -24 14 -15 0 -33
11 -45 26 -12 15 -21 21 -21 13 0 -11 -2 -11 -10 1 -8 13 -10 12 -10 -2 0 -10
-4 -18 -9 -18 -5 0 -12 8 -14 18 -4 13 -5 11 -6 -5 -1 -21 9 -28 32 -24 5 1 7
-4 4 -11 -2 -7 -12 -12 -21 -12 -9 1 -17 -3 -18 -10 -1 -6 -5 21 -8 59 -5 45
-7 4 -6 -115 1 -102 6 -194 10 -205 5 -12 2 -11 -8 5 -35 57 -39 101 -42 585
-4 496 2 748 17 739 5 -3 9 -33 9 -67z m1979 -399 c-1 -270 -12 -629 -17 -560
-1 13 -6 20 -12 17 -5 -3 -10 0 -10 7 0 10 -2 10 -8 0 -7 -10 -16 -10 -42 -1
-29 11 -35 10 -47 -6 -13 -18 -13 -18 -13 1 0 16 -2 16 -10 4 -6 -9 -6 -18 0
-24 6 -6 10 -15 10 -21 0 -5 -7 -1 -15 9 -10 13 -15 15 -15 6 0 -7 -3 -10 -6
-7 -4 4 -1 13 5 21 9 11 11 106 9 373 -3 390 -3 385 -63 445 l-26 27 73 -5
c47 -3 91 0 123 9 28 8 53 15 58 16 4 0 6 -140 6 -311z m-2095 208 c9 -65 0
-106 -23 -106 -9 0 -32 -3 -52 -6 -35 -6 -37 -5 -43 30 -4 19 -4 58 0 86 l7
50 52 0 53 0 6 -54z m2307 12 c1 -24 2 -56 3 -72 1 -26 -4 -31 -33 -39 -19 -5
-40 -16 -47 -25 -7 -9 -16 -13 -20 -9 -5 4 -2 12 6 17 13 8 12 10 -2 10 -16 0
-18 11 -18 80 l0 80 55 0 55 0 1 -42z m-2522 -128 c6 -42 -12 -299 -18 -260
-4 23 -9 31 -14 22 -5 -7 -12 -10 -16 -7 -11 6 -21 -70 -21 -154 0 -46 -3 -62
-10 -51 -5 9 -10 110 -10 236 0 240 2 247 55 242 23 -2 31 -9 34 -28z m2699
18 c13 -13 15 -232 2 -283 -7 -28 -8 -28 -9 11 -1 28 -6 44 -17 48 -27 11 -33
7 -36 -26 -2 -18 -7 29 -11 105 -5 75 -5 142 -2 147 9 14 58 13 73 -2z m-1695
-82 c34 -14 102 -84 92 -94 -3 -4 -10 0 -16 8 -6 10 -11 12 -16 4 -5 -6 -26
-19 -48 -30 -22 -10 -42 -21 -45 -24 -7 -8 -109 -70 -116 -70 -3 0 -18 -9 -32
-21 -25 -19 -27 -19 -33 -2 -5 13 -9 5 -16 -27 l-9 -45 -17 32 c-35 67 -14
175 45 230 53 50 145 67 211 39z m772 -5 c40 -18 105 -82 105 -103 0 -5 -18 6
-40 26 -39 35 -56 38 -87 13 -9 -6 -13 -6 -13 2 0 19 -17 12 -23 -9 -3 -11
-13 -20 -24 -20 -10 0 -30 -7 -45 -14 -21 -11 -28 -12 -29 -3 0 9 -2 9 -5 0
-3 -7 -11 -10 -19 -7 -8 3 -26 -13 -45 -41 -30 -43 -31 -49 -22 -88 6 -23 9
-43 7 -46 -10 -9 -35 70 -35 109 0 144 146 240 275 181z m-1565 -158 c0 -93
-4 -174 -8 -180 -5 -7 -22 -15 -40 -17 -28 -3 -32 0 -39 28 -7 30 -8 29 -14
-19 -3 -27 -7 39 -7 147 l-2 197 38 4 c20 2 45 4 55 5 16 2 17 -12 17 -165z
m2278 157 l32 0 0 -157 c0 -95 -4 -152 -9 -144 -7 11 -13 11 -32 -4 l-24 -17
24 7 c17 5 21 4 16 -5 -4 -7 -19 -10 -36 -6 -23 4 -29 2 -30 -12 0 -14 -2 -14
-8 3 -5 11 -9 94 -10 184 l-2 164 23 -7 c13 -3 38 -6 56 -6z m-2028 -620 c0
-5 -7 -10 -16 -10 -8 0 -12 5 -9 10 3 6 10 10 16 10 5 0 9 -4 9 -10z m188
-209 c32 -28 30 -83 -4 -110 -53 -42 -114 -13 -114 54 0 64 68 97 118 56z
m212 -31 c11 -11 20 -26 20 -34 0 -21 -40 -66 -59 -66 -29 0 -61 30 -61 57 0
57 61 82 100 43z m865 -519 c-83 -76 -264 -189 -415 -259 -166 -77 -249 -106
-265 -92 -8 7 -15 16 -15 20 0 4 57 29 128 55 198 75 435 193 532 266 25 19
53 27 35 10z m-648 -145 c13 -11 23 -23 23 -27 0 -4 -38 -20 -85 -35 -71 -24
-87 -26 -97 -15 -11 12 -10 13 5 8 34 -13 125 59 113 89 -7 17 5 12 41 -20z"/>
<path d="M2940 3657 c-13 -7 -31 -24 -39 -39 -14 -25 -14 -29 5 -55 50 -66
149 -19 122 58 -5 14 -20 31 -34 38 -30 13 -24 13 -54 -2z"/>
</g>
</svg>
